<!DOCTYPE svg PUBLIC "-//W3C//DTD SVG 1.1//EN" "http://www.w3.org/Graphics/SVG/1.1/DTD/svg11.dtd">
<!-- Uploaded to: SVG Repo, www.svgrepo.com, Transformed by: SVG Repo Mixer Tools -->
<svg fill="#333" version="1.1" id="Capa_1" xmlns="http://www.w3.org/2000/svg" xmlns:xlink="http://www.w3.org/1999/xlink" width="800px" height="800px" viewBox="0 0 31.963 31.963" xml:space="preserve">
<g id="SVGRepo_bgCarrier" stroke-width="0"/>
<g id="SVGRepo_tracerCarrier" stroke-linecap="round" stroke-linejoin="round"/>
<g id="SVGRepo_iconCarrier"> <g> <path d="M31.453,9.17c0.372-0.439,0.554-1.011,0.501-1.585c-0.055-0.574-0.338-1.102-0.785-1.466l-3.811-3.084 c-0.92-0.744-2.27-0.602-3.014,0.317L12.675,17.773l-5.536-4.667c-1.054-0.889-2.61-0.822-3.585,0.151l-2.927,2.926 c-0.421,0.421-0.647,0.999-0.626,1.594c0.022,0.596,0.291,1.152,0.742,1.542l11.108,9.565c0.432,0.373,0.994,0.558,1.562,0.513 c0.568-0.044,1.096-0.312,1.465-0.747L31.453,9.17z"/> </g> </g>
</svg>