<!DOCTYPE svg PUBLIC "-//W3C//DTD SVG 1.1//EN" "http://www.w3.org/Graphics/SVG/1.1/DTD/svg11.dtd">
<!-- Uploaded to: SVG Repo, www.svgrepo.com, Transformed by: SVG Repo Mixer Tools -->
<svg fill="#333" height="800px" width="800px" version="1.1" id="Layer_1" xmlns="http://www.w3.org/2000/svg" xmlns:xlink="http://www.w3.org/1999/xlink" viewBox="0 0 512 512" xml:space="preserve">
<g id="SVGRepo_bgCarrier" stroke-width="0"/>
<g id="SVGRepo_tracerCarrier" stroke-linecap="round" stroke-linejoin="round"/>
<g id="SVGRepo_iconCarrier"> <g> <g> <path d="M149.333,405.334c-11.776,0-21.333,9.557-21.333,21.333S137.557,448,149.333,448s21.333-9.557,21.333-21.333 S161.109,405.334,149.333,405.334z"/> </g> </g> <g> <g> <path d="M490.667,85.334h-192v-42.71C298.667,19.115,279.552,0,256.043,0H42.624C19.115,0,0,19.115,0,42.624v426.752 C0,492.885,19.115,512,42.624,512h213.419c23.509,0,42.624-19.115,42.624-42.624V384h192c11.776,0,21.333-9.557,21.333-21.333 V213.333H192v-42.667h320v-63.999C512,94.891,502.443,85.334,490.667,85.334z M341.333,276.48c0-11.307,9.173-20.48,20.48-20.48 h65.707c11.307,0,20.48,9.173,20.48,20.48v23.019c0,11.328-9.173,20.501-20.48,20.501h-65.707c-11.307,0-20.48-9.173-20.48-20.501 V276.48z M256,85.333h-85.333c-11.776,0-21.333,9.557-21.333,21.333v64v42.667v149.333C149.333,374.443,158.891,384,170.667,384 H256l0.043,85.333l-213.376,0.043L42.624,42.667L256,42.624V85.333z"/> </g> </g> </g>
</svg>